<?xml version="1.0" encoding="UTF-8" standalone="no"?>
<!-- Created with Inkscape (http://www.inkscape.org/) -->

<svg
   width="210mm"
   height="297mm"
   viewBox="0 0 210 297"
   version="1.1"
   id="svg5"
   inkscape:version="1.1.1 (3bf5ae0d25, 2021-09-20)"
   sodipodi:docname="knights.svg"
   inkscape:export-filename="C:\Users\PC\Documents\GitHub\RPG_Game_SDL_C\RPG_LOR_Game\graphics\knight.png"
   inkscape:export-xdpi="96"
   inkscape:export-ydpi="96"
   xmlns:inkscape="http://www.inkscape.org/namespaces/inkscape"
   xmlns:sodipodi="http://sodipodi.sourceforge.net/DTD/sodipodi-0.dtd"
   xmlns="http://www.w3.org/2000/svg"
   xmlns:svg="http://www.w3.org/2000/svg">
  <sodipodi:namedview
     id="namedview7"
     pagecolor="#ffffff"
     bordercolor="#666666"
     borderopacity="1.0"
     inkscape:pageshadow="2"
     inkscape:pageopacity="0.0"
     inkscape:pagecheckerboard="0"
     inkscape:document-units="mm"
     showgrid="false"
     inkscape:snap-nodes="false"
     inkscape:snap-object-midpoints="true"
     inkscape:snap-center="false"
     inkscape:snap-text-baseline="false"
     inkscape:zoom="0.58083614"
     inkscape:cx="81.778658"
     inkscape:cy="562.12067"
     inkscape:window-width="1600"
     inkscape:window-height="837"
     inkscape:window-x="-8"
     inkscape:window-y="-8"
     inkscape:window-maximized="1"
     inkscape:current-layer="layer1" />
  <defs
     id="defs2" />
  <g
     inkscape:label="Layer 1"
     inkscape:groupmode="layer"
     id="layer1">
    <ellipse
       style="fill:#ffb380;fill-rule:evenodd;stroke-width:0.171649"
       id="path202"
       ry="35.530674"
       rx="12.653583"
       cy="83.996269"
       cx="84.943901" />
    <ellipse
       style="fill:#ffb380;stroke-width:0.264583"
       id="path430"
       ry="9.1104298"
       rx="7.5161042"
       cy="86.570801"
       cx="92.587456" />
    <ellipse
       style="fill:#ffffff;stroke-width:0.264583"
       id="path597"
       cx="91.332054"
       cy="69.922546"
       rx="4.3274541"
       ry="8.8826685" />
    <ellipse
       style="fill:#000080;stroke-width:0.264583"
       id="path788"
       cx="91.104294"
       cy="74.705513"
       rx="2.9608896"
       ry="4.7829752" />
    <ellipse
       style="fill:#241c1c;stroke-width:0.264583"
       id="path910"
       cx="91.104294"
       cy="74.705513"
       rx="2.2776074"
       ry="2.7331288" />
    <rect
       style="fill:#ff0000;stroke-width:0.16118"
       id="rect1269"
       width="8.1142902"
       height="4.5552149"
       x="83.116371"
       y="100.78684"
       ry="0.91104299" />
    <rect
       style="fill:#6c5353;stroke-width:0.184903"
       id="rect1359"
       width="49.166039"
       height="19.587418"
       x="59.917007"
       y="119.63269"
       ry="9.7937088" />
    <path
       style="fill:#ffb380"
       id="path1482"
       sodipodi:type="arc"
       sodipodi:cx="86.437195"
       sodipodi:cy="118.91753"
       sodipodi:rx="7.0605826"
       sodipodi:ry="11.160276"
       sodipodi:start="0"
       sodipodi:end="5.2219728"
       sodipodi:open="true"
       sodipodi:arc-type="arc"
       d="m 93.497777,118.91753 a 7.0605826,11.160276 0 0 1 -5.209285,10.76981 7.0605826,11.160276 0 0 1 -7.941053,-5.12209 7.0605826,11.160276 0 0 1 1.044968,-13.45585 7.0605826,11.160276 0 0 1 8.489039,-1.93421" />
    <path
       style="fill:#6c5353"
       id="path2246"
       sodipodi:type="arc"
       sodipodi:cx="85.660851"
       sodipodi:cy="178.10889"
       sodipodi:rx="18.032204"
       sodipodi:ry="46.235428"
       sodipodi:start="0.22905129"
       sodipodi:end="0.18931328"
       sodipodi:arc-type="arc"
       sodipodi:open="true"
       d="M 103.22209,188.60681 A 18.032204,46.235428 0 0 1 81.741233,223.23882 18.032204,46.235428 0 0 1 68.02173,168.50763 18.032204,46.235428 0 0 1 89.230002,132.78819 18.032204,46.235428 0 0 1 103.37089,186.80968" />
    <path
       style="fill:#6c5353"
       id="path2527"
       sodipodi:type="arc"
       sodipodi:cx="126.84278"
       sodipodi:cy="213.75952"
       sodipodi:rx="9.7937117"
       sodipodi:ry="28.697851"
       sodipodi:start="0.22905178"
       sodipodi:end="0.18931412"
       sodipodi:open="true"
       sodipodi:arc-type="arc"
       d="m 136.3807,220.27549 a 9.7937117,28.697851 0 0 1 -11.66676,21.49571 9.7937117,28.697851 0 0 1 -7.45138,-33.9711 9.7937117,28.697851 0 0 1 11.51872,-22.17066 9.7937117,28.697851 0 0 1 7.68023,33.5306"
       transform="rotate(13.657856)" />
    <path
       style="fill:#6c5353"
       id="path2527-0"
       sodipodi:type="arc"
       sodipodi:cx="22.03882"
       sodipodi:cy="260.68027"
       sodipodi:rx="9.7937117"
       sodipodi:ry="28.697851"
       sodipodi:start="0.22905178"
       sodipodi:end="0.18931412"
       sodipodi:open="true"
       sodipodi:arc-type="arc"
       d="m 31.576741,267.19623 a 9.7937117,28.697851 0 0 1 -11.666762,21.49571 9.7937117,28.697851 0 0 1 -7.451376,-33.97109 9.7937117,28.697851 0 0 1 11.518714,-22.17066 9.7937117,28.697851 0 0 1 7.680236,33.53059"
       transform="rotate(-18.381174)" />
    <path
       style="fill:#552200"
       id="path2881"
       sodipodi:type="arc"
       sodipodi:cx="73.551147"
       sodipodi:cy="263.25955"
       sodipodi:rx="13.210123"
       sodipodi:ry="5.9217792"
       sodipodi:start="0.22905178"
       sodipodi:end="0.18931412"
       sodipodi:open="true"
       sodipodi:arc-type="arc"
       d="m 86.41625,264.60412 a 13.210123,5.9217792 0 0 1 -15.736563,4.43562 13.210123,5.9217792 0 0 1 -10.050694,-7.00991 13.210123,5.9217792 0 0 1 15.536871,-4.5749 13.210123,5.9217792 0 0 1 10.359388,6.91901" />
    <path
       style="fill:#552200"
       id="path2881-9"
       sodipodi:type="arc"
       sodipodi:cx="116.78223"
       sodipodi:cy="264.54138"
       sodipodi:rx="13.210123"
       sodipodi:ry="5.9217792"
       sodipodi:start="0.22905178"
       sodipodi:end="0.18931412"
       sodipodi:open="true"
       sodipodi:arc-type="arc"
       d="m 129.64733,265.88595 a 13.210123,5.9217792 0 0 1 -15.73656,4.43562 13.210123,5.9217792 0 0 1 -10.0507,-7.00991 13.210123,5.9217792 0 0 1 15.53687,-4.5749 13.210123,5.9217792 0 0 1 10.35939,6.91901" />
    <path
       style="fill:#6c5353"
       id="path3051"
       sodipodi:type="arc"
       sodipodi:cx="77.907089"
       sodipodi:cy="145.6611"
       sodipodi:rx="6.6050615"
       sodipodi:ry="31.658743"
       sodipodi:start="0.22905178"
       sodipodi:end="0.18931412"
       sodipodi:open="true"
       sodipodi:arc-type="arc"
       d="m 84.339641,152.84935 a 6.6050615,31.658743 0 0 1 -7.868282,23.71352 6.6050615,31.658743 0 0 1 -5.025347,-37.47605 6.6050615,31.658743 0 0 1 7.768435,-24.45811 6.6050615,31.658743 0 0 1 5.179695,36.9901"
       transform="rotate(7.1505873)" />
    <path
       style="fill:#6c5353"
       id="path3051-7"
       sodipodi:type="arc"
       sodipodi:cx="86.51757"
       sodipodi:cy="165.49286"
       sodipodi:rx="6.6050615"
       sodipodi:ry="31.658743"
       sodipodi:start="0.22905178"
       sodipodi:end="0.18931412"
       sodipodi:open="true"
       sodipodi:arc-type="arc"
       transform="rotate(-7.8849124)"
       d="m 92.950122,172.68111 a 6.6050615,31.658743 0 0 1 -7.868282,23.71352 6.6050615,31.658743 0 0 1 -5.025347,-37.47605 6.6050615,31.658743 0 0 1 7.768436,-24.45811 6.6050615,31.658743 0 0 1 5.179694,36.9901" />
  </g>
</svg>
