<?xml version="1.0" encoding="UTF-8" standalone="no"?>
<!-- Created with Inkscape (http://www.inkscape.org/) -->

<svg
   width="210mm"
   height="297mm"
   viewBox="0 0 210 297"
   version="1.1"
   id="svg5"
   inkscape:version="1.1.1 (3bf5ae0d25, 2021-09-20)"
   sodipodi:docname="knights.svg"
   inkscape:export-filename="C:\Users\PC\Documents\GitHub\RPG_Game_SDL_C\RPG_LOR_Game\graphics\knight.png"
   inkscape:export-xdpi="96"
   inkscape:export-ydpi="96"
   xmlns:inkscape="http://www.inkscape.org/namespaces/inkscape"
   xmlns:sodipodi="http://sodipodi.sourceforge.net/DTD/sodipodi-0.dtd"
   xmlns="http://www.w3.org/2000/svg"
   xmlns:svg="http://www.w3.org/2000/svg">
  <sodipodi:namedview
     id="namedview7"
     pagecolor="#ffffff"
     bordercolor="#666666"
     borderopacity="1.0"
     inkscape:pageshadow="2"
     inkscape:pageopacity="0.0"
     inkscape:pagecheckerboard="0"
     inkscape:document-units="mm"
     showgrid="false"
     inkscape:snap-nodes="false"
     inkscape:snap-object-midpoints="true"
     inkscape:snap-center="false"
     inkscape:snap-text-baseline="false"
     inkscape:zoom="0.58083614"
     inkscape:cx="81.778658"
     inkscape:cy="562.12067"
     inkscape:window-width="1600"
     inkscape:window-height="837"
     inkscape:window-x="-8"
     inkscape:window-y="-8"
     inkscape:window-maximized="1"
     inkscape:current-layer="layer1" />
  <defs
     id="defs2" />
  <g
     inkscape:label="Layer 1"
     inkscape:groupmode="layer"
     id="layer1">
    <ellipse
       style="fill:#ffb380;fill-rule:evenodd;stroke-width:0.264583"
       id="path202"
       cx="99.759201"
       cy="78.805206"
       rx="30.064419"
       ry="35.530674" />
    <ellipse
       style="fill:#ffb380;stroke-width:0.264583"
       id="path430"
       ry="9.1104298"
       rx="7.5161042"
       cy="71.516869"
       cx="94.065178" />
    <ellipse
       style="fill:#ffffff;stroke-width:0.264583"
       id="path597"
       cx="91.332054"
       cy="69.922546"
       rx="4.3274541"
       ry="8.8826685" />
    <ellipse
       style="fill:#ffffff;stroke-width:0.264583"
       id="path597-8"
       cx="111.14724"
       cy="69.694786"
       rx="4.3274541"
       ry="8.8826685" />
    <ellipse
       style="fill:#000080;stroke-width:0.264583"
       id="path760-9"
       cx="111.60275"
       cy="72.427917"
       rx="2.9608896"
       ry="5.010736" />
    <ellipse
       style="fill:#000080;stroke-width:0.264583"
       id="path788"
       cx="91.332054"
       cy="72.65567"
       rx="2.9608896"
       ry="4.7829752" />
    <ellipse
       style="fill:#241c1c;stroke-width:0.264583"
       id="path910"
       cx="91.104294"
       cy="74.705513"
       rx="2.2776074"
       ry="2.7331288" />
    <ellipse
       style="fill:#241c1c;stroke-width:0.264583"
       id="path910-3"
       cx="111.60276"
       cy="73.794479"
       rx="2.2776074"
       ry="2.7331288" />
    <rect
       style="fill:#ff0000;stroke-width:0.264583"
       id="rect1269"
       width="21.865036"
       height="4.5552149"
       x="92.015335"
       y="99.30368"
       ry="0.91104299" />
    <rect
       style="fill:#6c5353;stroke-width:0.207018"
       id="rect1359"
       width="61.630199"
       height="19.587418"
       x="69.628616"
       y="118.89111"
       ry="9.7937088" />
    <path
       style="fill:#ffb380"
       id="path1482"
       sodipodi:type="arc"
       sodipodi:cx="100.89801"
       sodipodi:cy="120.02991"
       sodipodi:rx="7.0605826"
       sodipodi:ry="11.160276"
       sodipodi:start="0"
       sodipodi:end="5.2219728"
       sodipodi:open="true"
       sodipodi:arc-type="arc"
       d="m 107.95859,120.02991 a 7.0605826,11.160276 0 0 1 -5.20928,10.76981 7.0605826,11.160276 0 0 1 -7.941055,-5.12208 7.0605826,11.160276 0 0 1 1.044968,-13.45586 7.0605826,11.160276 0 0 1 8.489037,-1.93421" />
    <path
       style="fill:#6c5353"
       id="path2246"
       sodipodi:type="arc"
       sodipodi:cx="99.759201"
       sodipodi:cy="178.10889"
       sodipodi:rx="23.231594"
       sodipodi:ry="46.235428"
       sodipodi:start="0.22905129"
       sodipodi:end="0.18931328"
       sodipodi:arc-type="arc"
       sodipodi:open="true"
       d="m 122.38404,188.60681 a 23.231594,46.235428 0 0 1 -27.674635,34.63201 23.231594,46.235428 0 0 1 -17.675374,-54.73119 23.231594,46.235428 0 0 1 27.323449,-35.71944 23.231594,46.235428 0 0 1 18.21825,54.02149" />
    <path
       style="fill:#6c5353"
       id="path2527"
       sodipodi:type="arc"
       sodipodi:cx="135.48001"
       sodipodi:cy="213.18704"
       sodipodi:rx="9.7937117"
       sodipodi:ry="28.697851"
       sodipodi:start="0.22905178"
       sodipodi:end="0.18931412"
       sodipodi:open="true"
       sodipodi:arc-type="arc"
       d="m 145.01793,219.70301 a 9.7937117,28.697851 0 0 1 -11.66676,21.49571 9.7937117,28.697851 0 0 1 -7.45138,-33.97109 9.7937117,28.697851 0 0 1 11.51872,-22.17067 9.7937117,28.697851 0 0 1 7.68023,33.5306"
       transform="rotate(13.657856)" />
    <path
       style="fill:#6c5353"
       id="path2527-0"
       sodipodi:type="arc"
       sodipodi:cx="37.989998"
       sodipodi:cy="265.58997"
       sodipodi:rx="9.7937117"
       sodipodi:ry="28.697851"
       sodipodi:start="0.22905178"
       sodipodi:end="0.18931412"
       sodipodi:open="true"
       sodipodi:arc-type="arc"
       d="m 47.527919,272.10593 a 9.7937117,28.697851 0 0 1 -11.666762,21.49571 9.7937117,28.697851 0 0 1 -7.451377,-33.97109 9.7937117,28.697851 0 0 1 11.518715,-22.17067 9.7937117,28.697851 0 0 1 7.680236,33.5306"
       transform="rotate(-18.381174)" />
    <path
       style="fill:#552200"
       id="path2881"
       sodipodi:type="arc"
       sodipodi:cx="66.506134"
       sodipodi:cy="265.11349"
       sodipodi:rx="13.210123"
       sodipodi:ry="5.9217792"
       sodipodi:start="0.22905178"
       sodipodi:end="0.18931412"
       sodipodi:open="true"
       sodipodi:arc-type="arc"
       d="m 79.371237,266.45806 a 13.210123,5.9217792 0 0 1 -15.736563,4.43562 13.210123,5.9217792 0 0 1 -10.050694,-7.00991 13.210123,5.9217792 0 0 1 15.536871,-4.5749 13.210123,5.9217792 0 0 1 10.359388,6.91902" />
    <path
       style="fill:#552200"
       id="path2881-9"
       sodipodi:type="arc"
       sodipodi:cx="133.46779"
       sodipodi:cy="266.02454"
       sodipodi:rx="13.210123"
       sodipodi:ry="5.9217792"
       sodipodi:start="0.22905178"
       sodipodi:end="0.18931412"
       sodipodi:open="true"
       sodipodi:arc-type="arc"
       d="m 146.33289,267.3691 a 13.210123,5.9217792 0 0 1 -15.73656,4.43562 13.210123,5.9217792 0 0 1 -10.0507,-7.0099 13.210123,5.9217792 0 0 1 15.53688,-4.5749 13.210123,5.9217792 0 0 1 10.35938,6.91901" />
    <path
       style="fill:#6c5353"
       id="path3051"
       sodipodi:type="arc"
       sodipodi:cx="88.345596"
       sodipodi:cy="142.48306"
       sodipodi:rx="6.6050615"
       sodipodi:ry="31.658743"
       sodipodi:start="0.22905178"
       sodipodi:end="0.18931412"
       sodipodi:open="true"
       sodipodi:arc-type="arc"
       d="m 94.778148,149.67131 a 6.6050615,31.658743 0 0 1 -7.868282,23.71353 6.6050615,31.658743 0 0 1 -5.025347,-37.47605 6.6050615,31.658743 0 0 1 7.768436,-24.45812 6.6050615,31.658743 0 0 1 5.179694,36.9901"
       transform="rotate(7.1505873)" />
    <path
       style="fill:#6c5353"
       id="path3051-7"
       sodipodi:type="arc"
       sodipodi:cx="108.23822"
       sodipodi:cy="168.12669"
       sodipodi:rx="6.6050615"
       sodipodi:ry="31.658743"
       sodipodi:start="0.22905178"
       sodipodi:end="0.18931412"
       sodipodi:open="true"
       sodipodi:arc-type="arc"
       transform="rotate(-7.8849124)"
       d="m 114.67077,175.31494 a 6.6050615,31.658743 0 0 1 -7.86828,23.71353 6.6050615,31.658743 0 0 1 -5.02535,-37.47605 6.6050615,31.658743 0 0 1 7.76844,-24.45812 6.6050615,31.658743 0 0 1 5.17969,36.9901" />
  </g>
</svg>
